<?xml version="1.0" encoding="UTF-8"?>
<svg xmlns="http://www.w3.org/2000/svg" xmlns:xlink="http://www.w3.org/1999/xlink" width="458.4pt" height="454.08pt" viewBox="0 0 458.4 454.08">
<defs>
<clipPath id="clip-0">
<path clip-rule="nonzero" d="M 0 0 L 458.398438 0 L 458.398438 454.078125 L 0 454.078125 Z M 0 0 "/>
</clipPath>
</defs>
<path fill-rule="nonzero" fill="rgb(0%, 0%, 0%)" fill-opacity="1" d="M 255.597656 249.847656 C 254.761719 249.972656 250.710938 251.597656 249.832031 252.355469 C 249.460938 252.757812 248.433594 255.214844 248.265625 255.832031 C 246.507812 262.496094 249.046875 269.28125 254.519531 273.363281 L 253.421875 270.023438 C 250.320312 270.398438 252.546875 267.636719 252 265.925781 C 251.210938 266.074219 250.460938 266.253906 249.839844 265.558594 C 250.875 263.855469 250.917969 262.367188 250.800781 260.40625 C 246.878906 260.6875 251.429688 256.757812 252 255.246094 C 245.699219 255.066406 255.878906 251.894531 255.597656 249.847656 M 259.203125 284.644531 C 265.269531 277.335938 260.957031 268.039062 259.007812 260.078125 C 259.453125 259.359375 269.679688 245.609375 269.402344 245.289062 C 261.082031 247.128906 254.351562 254.472656 254.644531 263.140625 C 255.210938 268.207031 258.558594 273.566406 258.871094 278.773438 C 257.976562 280.46875 259.703125 282.667969 259.203125 284.644531 M 311.195312 243.640625 C 310.019531 243.988281 310.523438 245.960938 312.097656 245.503906 C 312.738281 245.316406 312.894531 243.136719 311.195312 243.640625 M 210.671875 243.410156 C 210.15625 242.890625 208.183594 242.960938 208.128906 244.003906 C 208.027344 245.941406 212.160156 244.917969 210.671875 243.410156 M 233.269531 240.472656 L 233.472656 239.882812 L 232.679688 239.285156 L 232.320312 240.484375 Z M 240.050781 236.355469 C 241.101562 237.398438 242.460938 235.484375 241.207031 234.839844 C 240.132812 234.292969 239.304688 235.617188 240.050781 236.355469 M 306.394531 232.601562 C 305.039062 233.003906 305.566406 235.441406 307.285156 234.929688 C 308.640625 234.527344 308.113281 232.089844 306.394531 232.601562 M 312.71875 229.683594 L 311.761719 230.042969 L 313.082031 231.121094 Z M 298.800781 226.804688 C 298.773438 227.339844 297.410156 228.402344 298.453125 228.710938 C 299.816406 229.121094 300.390625 226.957031 298.800781 226.804688 M 265.96875 226.375 C 265.371094 226.964844 265.574219 228.875 266.558594 229.167969 C 270.496094 229.960938 268.949219 224.101562 265.96875 226.375 M 278.328125 222.046875 C 276.457031 222.449219 276.953125 225.828125 279.441406 225.085938 C 280.929688 224.644531 280.667969 221.542969 278.328125 222.046875 M 229.199219 235.925781 C 227.585938 238.128906 231.472656 238.804688 230.839844 236.566406 C 230.769531 236.320312 230.070312 235.878906 230.777344 235.703125 C 234.246094 235.773438 237.03125 234.53125 240.414062 233.820312 C 246.238281 232.289062 251.953125 232.363281 257.589844 230.113281 C 258.585938 229.628906 260.128906 229.742188 259.777344 228.242188 C 271.914062 214.652344 295.050781 221.757812 307.601562 231.578125 L 309.59375 230.285156 C 302.0625 222.050781 276.101562 213.371094 265.296875 217.921875 C 262.871094 216.878906 262.671875 221.300781 261.105469 222.59375 C 258.367188 223.851562 255.285156 226.9375 252.613281 228.015625 C 238.273438 234.242188 215.90625 233.136719 204.480469 243.605469 C 208.578125 241.234375 213.871094 240.3125 218.160156 238.925781 C 216.847656 239.707031 217.519531 241.574219 218.988281 241.441406 C 220.324219 241.320312 220.441406 239.339844 219.605469 238.921875 C 219.148438 238.695312 218.429688 239.03125 218.402344 238.566406 C 221.878906 237.257812 225.53125 236.542969 229.199219 235.925781 M 293.519531 212.886719 L 294 212.285156 C 292.148438 210.9375 288.722656 210.574219 286.425781 210.261719 C 284.847656 210.085938 285.574219 210.707031 284.878906 211.085938 C 284.339844 211.378906 283.421875 211.308594 282.886719 211.492188 C 282.261719 211.796875 280.574219 214.199219 281.40625 214.800781 C 284.464844 215.042969 284.429688 211.726562 287.757812 212.40625 C 287.730469 213.445312 286.664062 213.75 287.039062 215.042969 C 287.816406 215.121094 288.226562 214.277344 288.730469 213.976562 C 289.570312 213.46875 290.664062 213.617188 291.601562 213.605469 C 291.71875 214.445312 291.550781 214.953125 291.113281 215.640625 L 291.839844 215.285156 L 291.597656 216.964844 C 293.457031 217.4375 294.296875 215.753906 295.847656 215.332031 C 296.617188 215.121094 299.054688 214.996094 299.054688 216.125 C 299.054688 216.691406 297.582031 217.332031 298.082031 218.40625 C 299.988281 216.953125 303.710938 216.230469 301.441406 219.605469 C 304.46875 218.753906 308.550781 220.191406 303.355469 221.890625 C 300.867188 222.964844 308.734375 223.164062 309.363281 223.445312 C 309.308594 224.777344 308.097656 224.496094 308.445312 226.160156 C 308.8125 227.917969 310.585938 227.847656 312 228.246094 C 312.105469 223.367188 306.03125 221.3125 304.253906 217.269531 C 302.554688 216.113281 295.5625 211.8125 293.519531 212.886719 M 283.921875 209.765625 C 278.886719 208.632812 273.707031 209.109375 268.574219 209.058594 C 268.703125 209.613281 266.175781 214.007812 265.921875 214.566406 C 268.585938 213.730469 269.085938 209.96875 272.398438 210.484375 C 272.449219 211.980469 269.441406 215.472656 273.589844 212.996094 C 274.714844 211.816406 275.542969 210.683594 277.328125 210.519531 C 278.457031 211.476562 276.863281 212.691406 276.71875 213.484375 C 277.363281 214.988281 280.667969 210.085938 282.652344 210.296875 C 283.210938 210.171875 284.109375 210.546875 283.921875 209.765625 M 264.699219 200.667969 C 262.332031 199.980469 262.363281 203.109375 264.324219 202.53125 C 265.15625 202.285156 265.015625 201.304688 264.699219 200.667969 M 224.878906 192.726562 C 221.859375 192.089844 221.441406 195.09375 219.839844 196.925781 C 215.542969 201.332031 206.058594 203.28125 200.890625 199.554688 C 200.453125 199.246094 198.050781 197.066406 197.757812 196.6875 C 197.3125 196.117188 197.144531 195.121094 196.195312 195.117188 C 194.746094 195.96875 192.644531 199.242188 190.628906 199.878906 C 189.171875 201.035156 193.191406 202.351562 194.152344 202.695312 C 206.871094 206.558594 220.464844 199.558594 232.558594 206.046875 C 233.84375 206.601562 234.507812 206.933594 234.707031 208.457031 C 234.898438 219.132812 220.234375 219.242188 214.15625 224.601562 C 209.28125 224.804688 214.945312 221.371094 216.46875 220.675781 C 241.183594 205.140625 220.140625 204.472656 204.164062 207.84375 C 202.976562 209.710938 201.09375 210.992188 198.898438 211.023438 C 184.546875 215.261719 165.972656 219.679688 160.136719 235.144531 C 157.363281 248.585938 165.175781 262.273438 178.972656 264.683594 L 181.679688 262.6875 C 171.953125 249.414062 186.085938 227.066406 201.839844 227.046875 C 201.910156 228.777344 199.570312 228.34375 198.410156 228.535156 C 195.675781 228.992188 189.375 233.457031 187.4375 235.566406 C 182.25 243.480469 177.21875 257.230469 186.726562 263.875 C 220.089844 270.03125 248.300781 241.148438 280.90625 239.78125 C 287.488281 240.714844 295.117188 243.453125 291.128906 251.652344 C 290.484375 253.429688 289.871094 254.347656 287.746094 253.820312 C 286.886719 251.382812 285.402344 249.445312 282.859375 248.652344 L 275.039062 259.445312 C 280.976562 258.511719 287.339844 260.03125 293.160156 259.226562 C 295.917969 259.5 299.871094 259.761719 302.351562 258.199219 C 302.429688 257.054688 304.085938 256.332031 304.921875 255.605469 C 312.050781 249.550781 307.742188 241.734375 303.054688 235.75 C 301.839844 234.460938 301.953125 235.191406 301.152344 233.214844 C 298.585938 230.476562 293.34375 228.695312 289.566406 229.691406 C 284.910156 229.308594 280.464844 230.285156 275.871094 230.15625 C 270.65625 230.28125 266.089844 233.863281 261.121094 234.726562 C 262.816406 237.261719 258.679688 237.800781 259.679688 234.964844 C 256.132812 235.488281 252.785156 237.054688 249.136719 237.140625 C 249.003906 239.691406 245.550781 239.972656 244.324219 238.203125 C 242.484375 237.8125 240.011719 239.730469 238.003906 239.328125 C 236.804688 239.59375 235.140625 240.976562 234.078125 241.644531 C 233.480469 242.015625 232.167969 242.320312 232.074219 243 C 232.46875 245.511719 229.679688 246.675781 228.082031 244.59375 C 224.28125 245.355469 220.375 247.070312 216.625 247.90625 C 216.3125 249.757812 213.175781 250.445312 212.253906 248.152344 C 210.136719 247.921875 201.429688 248.1875 205.550781 251.777344 C 206.238281 253.5625 208.0625 254.007812 209.867188 253.667969 C 211.945312 252.875 213.84375 252.949219 216.066406 252.671875 C 217.207031 252.417969 218.117188 251.597656 219.339844 252.265625 C 220.058594 253.285156 217.246094 256.066406 216.464844 256.667969 C 210.703125 260.722656 201.59375 258.910156 198.285156 252.5625 L 198.363281 245.289062 L 202.707031 239.074219 C 219.441406 228.417969 241.695312 231.523438 257.746094 219.9375 C 256.949219 218.109375 257.933594 216.253906 258.246094 214.210938 C 258.375 212.574219 258.226562 210.539062 258.003906 208.921875 C 257.910156 208.246094 256.722656 208.199219 256.5625 206.996094 C 256.371094 205.539062 257.695312 205.378906 256.910156 204.253906 C 254.929688 201.4375 251.191406 199.332031 247.921875 198.363281 C 245.210938 197.605469 242.515625 197.367188 240.257812 195.476562 C 239.105469 195.710938 237.738281 195.578125 237.578125 194.1875 C 233.789062 194.210938 235.726562 192.160156 230.878906 192.726562 C 231.453125 197.890625 224.3125 197.957031 224.878906 192.726562 M 250.71875 191.804688 C 249.867188 191.894531 249.167969 192.933594 249.953125 193.691406 C 251.734375 195.421875 252.621094 191.59375 250.71875 191.804688 M 257.445312 190.601562 C 255.335938 191.074219 257.1875 194.335938 258.589844 192.476562 C 259.289062 191.554688 258.507812 190.367188 257.445312 190.601562 M 244.742188 187.867188 C 245.761719 186.9375 245.386719 184.703125 243.917969 184.371094 C 239.34375 183.695312 241.425781 190.390625 244.742188 187.867188 M 225.542969 182.21875 C 224.921875 181.554688 223.734375 181.496094 223.0625 182.160156 L 223.667969 185.179688 C 225.382812 185.945312 226.683594 183.492188 225.542969 182.21875 M 200.878906 191.523438 C 200.300781 193.113281 202.894531 194.636719 203.917969 195.570312 C 206.636719 197.726562 211.488281 196.273438 214.390625 195.078125 C 225.398438 186.917969 212.941406 177.046875 203.519531 182.164062 C 204.734375 181.917969 205.929688 182.730469 207.011719 182.875 C 207.820312 182.980469 210.433594 182.566406 210.703125 183.515625 C 210.640625 185.847656 206.746094 185.042969 205.132812 184.753906 C 204.132812 184.574219 202.667969 183.5625 202.320312 185.285156 C 206.113281 185.375 208.953125 188.679688 212.78125 188.644531 C 213.71875 188.691406 215.28125 187.757812 215.980469 189.035156 C 214.960938 191.773438 209.703125 190.300781 207.535156 189.789062 C 205.675781 189.136719 204.148438 187.460938 202.082031 187.445312 C 201.90625 188.292969 203.613281 189.890625 204.003906 190.441406 C 204.402344 190.730469 205.429688 190.945312 206.003906 191.320312 C 206.878906 192.492188 208.378906 192.464844 209.515625 193.085938 C 206.6875 195.960938 203.765625 191.703125 200.878906 191.523438 M 199.429688 174.242188 C 200.273438 172.714844 199.0625 170.894531 197.28125 171.847656 C 197.65625 172.1875 198.660156 174.769531 199.429688 174.242188 M 143.519531 175.925781 C 143.328125 173.347656 143.921875 170.859375 144.421875 168.351562 C 143.277344 167.445312 142.210938 166.519531 140.640625 166.804688 C 140.421875 169.792969 141.914062 173.441406 143.519531 175.925781 M 139.183594 167.304688 C 138.125 166.902344 137.601562 166.023438 136.320312 166.324219 C 135.925781 167.796875 137.707031 171.707031 138.242188 173.042969 Z M 155.039062 161.765625 L 153.84375 162.367188 C 158.953125 169.367188 165.972656 162.480469 162.605469 157.988281 L 159.839844 158.886719 C 163.929688 163.082031 156.054688 167.640625 155.039062 161.765625 M 164.640625 156.003906 C 162.214844 152.195312 156.445312 156.371094 153.183594 157.148438 C 148.140625 158.941406 143.78125 159.226562 138.617188 160.101562 C 137.242188 160.335938 131.960938 161.195312 131.152344 161.757812 C 130.75 162.035156 128.789062 164.195312 128.675781 164.5625 C 128.515625 165.847656 128.300781 167.945312 129.71875 168.722656 C 135.726562 162.867188 144.507812 164.859375 150.703125 169.34375 C 152.800781 171.371094 154.898438 172.703125 157.679688 173.40625 C 166.425781 177.328125 176 179.246094 185.382812 180.710938 C 186.398438 180.605469 188.945312 179.3125 189.332031 180.640625 C 188.726562 183.460938 183.820312 183.722656 181.335938 183.589844 C 174.511719 180.480469 166.601562 182.773438 159.976562 185.296875 L 156.960938 179.527344 C 157.1875 181.96875 156.945312 184.054688 156.71875 186.484375 C 155.625 185.140625 155 182.890625 153.839844 181.6875 L 153.597656 187.445312 C 150.902344 186.894531 148.109375 187.582031 145.363281 187.859375 C 145.363281 187.859375 136.441406 186.71875 136.441406 186.71875 C 130.921875 191.09375 147.90625 191.777344 150.308594 192.539062 C 155.792969 193.917969 161.265625 195.957031 166.921875 196.5625 C 164.6875 194.808594 159.453125 191.75 156.585938 191.058594 C 155.691406 190.960938 153.644531 191.492188 154.101562 189.988281 C 155.957031 188.300781 160.765625 189.769531 162.550781 191.335938 C 165.023438 191.789062 167.605469 194.664062 170.039062 194.902344 C 171.257812 194.386719 171.996094 194.925781 173.394531 194.878906 C 173.863281 194.808594 176.617188 193.167969 177.289062 192.773438 C 177.542969 192.625 177.710938 192.816406 177.601562 192.246094 C 174.066406 191.082031 170.605469 188.972656 167.058594 188.265625 C 166.695312 187.320312 167.664062 187.210938 168.367188 186.972656 C 176.601562 187.085938 183.097656 197.238281 189.410156 185.816406 C 189.90625 185.316406 191.308594 185.214844 192 185.285156 C 191.5 188.734375 187.558594 191.527344 184.320312 192.246094 C 187.953125 198.289062 189.621094 194.789062 193.074219 191.039062 C 197.109375 179.003906 187.453125 168.421875 178.453125 161.996094 C 177.183594 159.472656 182.4375 160.527344 183.664062 160.859375 C 195.542969 165.0625 204.027344 177.863281 217.808594 176.15625 C 220.585938 176.371094 221.480469 177.292969 223.671875 178.453125 C 226.667969 180.042969 227.636719 179.550781 230.765625 179.757812 C 236.355469 180.125 249.890625 182.765625 254.390625 185.894531 C 256.761719 188.574219 260.089844 189.898438 262.664062 192.261719 C 262.664062 192.261719 265.4375 196.804688 265.4375 196.804688 C 265.136719 189.503906 252.832031 180.304688 245.765625 179.160156 C 232.167969 174.210938 216.363281 177.730469 203.355469 170.449219 C 195.921875 165.953125 185.691406 159.535156 177.445312 156.269531 C 176.21875 156.578125 176.105469 159.125 175.148438 160.035156 C 173.488281 160.503906 171.792969 161.722656 170.234375 160.371094 C 169.457031 159.976562 167.933594 159.214844 167.289062 158.753906 C 166.710938 158.34375 166.4375 157.523438 165.601562 157.683594 C 165.636719 160.597656 164.269531 162.910156 162.480469 165.125 C 163.726562 165.214844 166.574219 164.707031 166.558594 166.5625 C 165.253906 167.027344 164.21875 167.355469 163.035156 166.367188 C 161.335938 165.984375 159.5 166.921875 157.808594 167.054688 C 155.441406 167.222656 144.5625 166.433594 152.640625 164.882812 C 152.644531 164.308594 150.9375 163.070312 150.554688 162.769531 C 149.476562 162.394531 147.796875 162.710938 146.878906 162.125 C 146.132812 161.652344 147.429688 160.894531 147.964844 160.8125 C 153.996094 161.828125 158.625 156.367188 164.640625 156.003906 M 267.121094 187.445312 C 267.542969 176.964844 258.5 167.695312 249.765625 162.917969 C 244.207031 159.371094 238 157.792969 231.355469 156.851562 C 216.480469 149.546875 213.703125 148.8125 199.921875 159.484375 C 202.867188 159.035156 206.167969 157.953125 208.789062 156.59375 C 210.105469 155.820312 210.734375 154.503906 212.519531 154.554688 C 215.394531 154.808594 211.453125 157.199219 210.488281 157.574219 C 208.144531 159.539062 205.996094 161.933594 203.039062 162.96875 C 208.054688 167.394531 213.011719 158.019531 218.957031 158.710938 C 220.007812 158.738281 221.003906 159.480469 219.832031 160.195312 C 216.765625 161.609375 211.820312 162.308594 209.753906 165.480469 C 209.777344 167.175781 213.238281 166.921875 214.445312 166.8125 C 218.4375 166.449219 221.226562 161.988281 225.050781 161.335938 C 226.464844 161.179688 233.324219 160.636719 230.003906 163.410156 C 226.691406 164.628906 225.414062 165.285156 225.613281 169.074219 C 225.9375 171.808594 227.941406 170.585938 229.320312 169.445312 C 233.023438 166.382812 232.761719 162.359375 238.308594 160.914062 C 239.191406 160.6875 241.5625 160.085938 241.628906 161.445312 C 241.683594 162.539062 239.480469 163.058594 238.675781 163.683594 C 236.496094 165.375 236.496094 169.375 235.921875 171.84375 C 237.53125 171.804688 240.632812 171.640625 241.496094 170.101562 C 242.132812 168.960938 242.230469 166.472656 243.765625 166.128906 C 244.34375 166 245.472656 165.890625 245.535156 166.6875 C 245.6875 168.417969 242.785156 171.5625 244.199219 173.285156 C 246.410156 171.238281 248.28125 168.660156 251.464844 168.070312 C 252.347656 167.832031 256.152344 166.859375 255.570312 168.8125 C 255.15625 170.191406 251.820312 170.875 250.929688 172.097656 C 250.570312 172.859375 248.339844 176.167969 249.957031 176.414062 C 252.558594 176.488281 254.445312 172.121094 257.410156 173.753906 C 258.738281 174.601562 257.429688 175.78125 257.285156 176.769531 C 257.164062 177.597656 257.535156 178.25 257.523438 179.042969 C 259.902344 178.972656 266.214844 174.832031 263.53125 180.855469 C 262.761719 183.261719 265.792969 185.882812 267.121094 187.445312 M 166.984375 145.492188 C 163.542969 145.679688 163.464844 148.394531 165.253906 150.710938 C 167.535156 155.152344 182.164062 159.335938 176.640625 150.363281 C 174.695312 147.949219 170.136719 145.320312 166.984375 145.492188 M 148.101562 151.183594 C 150.894531 153.492188 163.046875 143.644531 155.453125 144.292969 C 152.71875 145.09375 147.851562 147.835938 148.101562 151.183594 M 256.320312 285.367188 C 254.511719 286.566406 253.960938 291.386719 253.320312 293.285156 C 251.5625 287.679688 246.964844 281.472656 240.71875 280.5625 C 242.0625 280.019531 243.953125 278.988281 245.40625 278.167969 C 245.984375 277.246094 249.546875 273.203125 249.617188 272.523438 C 245.117188 267.90625 243.398438 260.035156 246.238281 253.925781 C 234.421875 258.992188 223.007812 261.945312 211.203125 267.007812 C 193.644531 271.007812 171.953125 272.582031 159.730469 256.796875 C 156.753906 249.140625 154.523438 240.9375 155.578125 232.742188 C 162.074219 216.394531 182.898438 212.410156 197.28125 207.125 C 190.917969 206.828125 184.886719 203.347656 180.5625 198.746094 L 173.902344 201.363281 C 160.296875 199.777344 146.917969 196.167969 133.585938 192.941406 L 130.125 187.320312 L 134.636719 182.761719 C 139.828125 182.597656 145.433594 184.820312 150.71875 183.246094 C 141.289062 180.574219 131.6875 177.21875 124.917969 169.6875 L 124.835938 162.882812 C 129.902344 154.730469 140.472656 156.953125 148.5625 154.566406 C 148.917969 154.296875 147.175781 151.394531 147.117188 150.832031 C 146.9375 149.171875 149.261719 146.804688 150.496094 145.820312 C 158.335938 140.714844 158.679688 143.421875 161.058594 150.707031 C 163.214844 151.503906 162.667969 147.425781 163.679688 146.042969 C 168.683594 141.882812 177.054688 147.71875 179.1875 152.855469 C 184.632812 155.535156 190.351562 157.726562 195.480469 160.980469 C 210.628906 149.75 216.53125 146.148438 233.992188 155.898438 C 248.308594 157.617188 264.664062 166.429688 269.265625 180.859375 C 270.222656 188.511719 270.757812 197.308594 269.519531 204.964844 C 278.519531 204.535156 288.015625 205.929688 296.480469 208.78125 C 301.171875 203.757812 305.527344 196.863281 307.199219 190.085938 C 308.757812 195.941406 313.203125 201.078125 319.199219 202.566406 C 313.785156 205.265625 310.726562 210.753906 307.222656 215.40625 L 314.367188 222.398438 L 318.683594 235.140625 C 318.03125 241.734375 316.378906 248.789062 311.871094 254.15625 C 301.511719 263.609375 286.296875 259.652344 273.652344 260.9375 L 265.8125 271.699219 C 264.808594 272.984375 265.324219 274.628906 265.207031 276.132812 C 265.378906 281.140625 260.453125 284.863281 261.371094 289.792969 C 264.121094 294.726562 259.410156 294.585938 257.171875 291.355469 C 256.011719 290.183594 256.347656 286.796875 256.320312 285.367188 "/>
<path fill-rule="nonzero" fill="rgb(0%, 0%, 0%)" fill-opacity="1" d="M 220.078125 418.28125 C 220.324219 425.597656 234.964844 422.863281 239.585938 422.667969 C 244.085938 421.417969 246.378906 415.324219 248.386719 411.789062 C 248.8125 411.378906 250.589844 412.253906 251.046875 412.292969 L 247.1875 426.550781 L 203.277344 426.324219 L 203.292969 423.933594 C 206.949219 423.304688 211.453125 423.953125 212.101562 419.183594 C 213.085938 407.269531 212.191406 394.382812 212.390625 382.269531 C 212.882812 375.820312 213.289062 369.308594 204.71875 369.921875 L 204.71875 367.519531 L 245.519531 367.519531 C 245.6875 370.984375 245.949219 374.472656 245.992188 377.96875 C 246.023438 378.652344 246.730469 381.179688 245.851562 381.414062 L 243.605469 381.679688 C 241.773438 368.332031 232.019531 371.347656 221.871094 371.113281 C 218.003906 372.703125 221.253906 386.171875 220.328125 390.453125 C 220.308594 391.050781 219.644531 394.160156 220.441406 394.160156 L 233.398438 394.160156 C 237.359375 393.929688 238.273438 390.035156 238.820312 386.742188 L 241.441406 386.722656 L 241.441406 405.203125 L 238.558594 405.203125 C 238.65625 394.308594 226.847656 398.558594 220.078125 397.761719 Z M 220.078125 418.28125 "/>
<path fill-rule="nonzero" fill="rgb(0%, 0%, 0%)" fill-opacity="1" d="M 156.238281 366.324219 L 153.597656 365.359375 C 154.492188 362.082031 155.425781 358.449219 154.570312 355.152344 C 151.707031 350.691406 145.191406 347.851562 140.808594 345.152344 C 139.480469 344.527344 138.917969 344.636719 138.035156 345.839844 L 127.207031 363.785156 C 130.574219 366 137.144531 370.699219 141.019531 371.359375 C 142.941406 371.320312 145.898438 368.796875 146.644531 367.042969 C 146.859375 366.773438 148.476562 368.386719 149.039062 368.242188 L 148.519531 369.519531 L 139.320312 384.308594 L 137.289062 383.113281 L 138.714844 377.703125 C 137.3125 371.859375 129.667969 370.476562 125.398438 367.027344 L 124.832031 367.433594 L 114.433594 384.875 C 111.757812 391.421875 123.234375 394.59375 127.273438 397.570312 C 132.519531 400.339844 137.816406 396.03125 142.238281 393.464844 L 144.238281 395.242188 L 133.53125 405.421875 L 96.007812 382.5 L 97.097656 380.707031 C 100.539062 381.851562 104.335938 384.949219 107.28125 381.082031 C 113.734375 370.808594 120.214844 360.503906 126.4375 350.078125 C 129.808594 344.824219 134.246094 338.980469 126.496094 335.34375 C 126.34375 334.507812 127.324219 334.035156 127.457031 333.214844 L 162.367188 354.074219 L 162.464844 354.421875 Z M 156.238281 366.324219 "/>
<path fill-rule="nonzero" fill="rgb(0%, 0%, 0%)" fill-opacity="1" d="M 347.289062 372.8125 L 349.917969 372.082031 C 351.128906 377.003906 353.289062 382.261719 353.652344 387.214844 C 353.652344 387.214844 317.417969 408.097656 317.417969 408.097656 L 316.425781 406.160156 C 318.84375 404.027344 323.054688 402.140625 321.726562 398.234375 C 314.5 384.875 306.789062 371.683594 298.800781 358.761719 C 296.296875 355.628906 292.585938 357.964844 289.683594 359.125 L 288.71875 357.089844 L 309.609375 345.066406 C 312.003906 347.464844 308.644531 348.140625 307.070312 349.753906 C 300.691406 353.902344 325.59375 386.011719 328.433594 393.449219 C 332.527344 398.09375 338.144531 391.511719 342.316406 389.800781 C 348.789062 386.792969 347.933594 378.722656 347.289062 372.8125 "/>
<path fill-rule="nonzero" fill="rgb(0%, 0%, 0%)" fill-opacity="1" d="M 228.542969 285.429688 C 233.125 280.519531 241.421875 280.367188 246.601562 284.402344 C 256.636719 292.535156 255.203125 312.824219 242.21875 317.226562 C 241.550781 317.429688 238.199219 318.25 238.121094 317.171875 L 242.773438 305.296875 C 244.46875 299.5 237.613281 292.769531 232.441406 297.128906 L 226.921875 309.847656 C 226.351562 310.457031 225.839844 309.847656 225.546875 309.296875 C 221.746094 301.84375 222.757812 291.589844 228.542969 285.429688 "/>
<path fill-rule="nonzero" fill="rgb(0%, 0%, 0%)" fill-opacity="1" d="M 321.839844 165.367188 C 321.050781 171.742188 313.109375 180.851562 320.652344 185.875 C 331.597656 194.742188 331.277344 163.011719 335.945312 176.339844 C 340.511719 187.804688 332.167969 205.21875 318.242188 200.765625 C 302.257812 195.417969 303.941406 165.820312 321.839844 165.367188 "/>
<path fill-rule="nonzero" fill="rgb(0%, 0%, 0%)" fill-opacity="1" d="M 69.359375 220.644531 L 65.28125 230.242188 L 95.039062 233.121094 L 54.960938 239.84375 C 55.117188 238.375 58.757812 231.699219 58.558594 230.722656 L 37.921875 230.960938 C 38.128906 232.390625 40.699219 233.355469 40.917969 234.5625 C 40.917969 234.5625 22.320312 230.960938 22.320312 230.960938 L 38.039062 222.5625 C 38.667969 223.511719 34.117188 227.984375 35.636719 228.320312 C 35.636719 228.320312 69.359375 220.644531 69.359375 220.644531 "/>
<path fill-rule="nonzero" fill="rgb(0%, 0%, 0%)" fill-opacity="1" d="M 423.359375 228.320312 L 420.117188 222.324219 L 436.078125 230.960938 L 417.480469 234.5625 C 417.703125 233.351562 420.269531 232.394531 420.480469 230.964844 L 399.839844 230.722656 C 399.550781 230.949219 403.34375 239.226562 403.4375 239.601562 L 363.359375 233.121094 L 393.121094 230.242188 L 389.039062 220.644531 Z M 423.359375 228.320312 "/>
<path fill-rule="nonzero" fill="rgb(0%, 0%, 0%)" fill-opacity="1" d="M 87.839844 103.761719 L 77.039062 88.164062 L 94.082031 93.203125 C 94.742188 94.054688 87.085938 94.710938 88.078125 95.601562 C 88.078125 95.601562 117.359375 113.722656 117.359375 113.722656 L 117.363281 114.207031 L 108.003906 118.042969 L 126.957031 140.84375 L 93.839844 117.320312 C 96.527344 115.789062 100.636719 115.574219 102.71875 113.484375 C 97.433594 109.292969 93.296875 103.011719 87.839844 99.203125 Z M 87.839844 103.761719 "/>
<path fill-rule="nonzero" fill="rgb(0%, 0%, 0%)" fill-opacity="1" d="M 228 56.003906 L 236.878906 52.160156 L 230.398438 91.523438 L 229.921875 91.164062 L 227.519531 62.722656 C 224.210938 62.917969 220.914062 66.078125 217.679688 66.441406 L 225.597656 32.601562 C 225.328125 32.304688 219.929688 35.363281 219.601562 35.484375 L 228.238281 19.523438 L 231.597656 38.242188 L 228.359375 35.125 L 228 35.960938 Z M 228 56.003906 "/>
<path fill-rule="nonzero" fill="rgb(0%, 0%, 0%)" fill-opacity="1" d="M 271.382812 411.496094 C 274.5 411.203125 277.144531 413.84375 277.421875 416.855469 C 278.007812 423.167969 269.0625 425.539062 266.761719 419.601562 C 265.300781 415.824219 267.175781 411.890625 271.382812 411.496094 "/>
<path fill-rule="nonzero" fill="rgb(0%, 0%, 0%)" fill-opacity="1" d="M 369.058594 361.820312 C 373.585938 361.175781 377.488281 366.757812 374.75 370.632812 C 368.046875 379.488281 358.378906 364.105469 369.058594 361.820312 "/>
<path fill-rule="nonzero" fill="rgb(0%, 0%, 0%)" fill-opacity="1" d="M 158.816406 404.539062 C 168.757812 404.207031 165.578125 419.746094 156.390625 415.25 C 151.886719 412.78125 153.722656 405.199219 158.816406 404.539062 "/>
<path fill-rule="nonzero" fill="rgb(0%, 0%, 0%)" fill-opacity="1" d="M 117.839844 275.125 C 99.089844 285.484375 79.234375 295.300781 59.28125 303.203125 C 60.523438 302.175781 63.179688 300.484375 64.632812 299.796875 C 82.652344 292.3125 99.386719 281.40625 117.839844 275.125 "/>
<path fill-rule="nonzero" fill="rgb(0%, 0%, 0%)" fill-opacity="1" d="M 398.398438 304.160156 C 378.832031 295.660156 358.363281 286.9375 340.078125 276.082031 C 359.917969 284.085938 379.765625 293.78125 398.398438 304.160156 "/>
<path fill-rule="nonzero" fill="rgb(0%, 0%, 0%)" fill-opacity="1" d="M 270 111.203125 C 276.8125 91.164062 286.605469 71.609375 295.917969 52.644531 C 288.140625 72.308594 280.222656 92.664062 270 111.203125 "/>
<path fill-rule="nonzero" fill="rgb(0%, 0%, 0%)" fill-opacity="1" d="M 113.519531 186.5625 C 93.957031 179.410156 73.757812 172.214844 55.203125 162.679688 C 74.699219 169.796875 95.234375 176.933594 113.519531 186.5625 "/>
<path fill-rule="nonzero" fill="rgb(0%, 0%, 0%)" fill-opacity="1" d="M 403.679688 163.28125 C 385.183594 172.835938 364.761719 180.148438 345.121094 187.28125 C 363.875 177.988281 383.945312 170.269531 403.679688 163.28125 "/>
<path fill-rule="nonzero" fill="rgb(0%, 0%, 0%)" fill-opacity="1" d="M 183.117188 113.121094 C 170.925781 96.042969 161.078125 76.25 151.320312 57.683594 C 162.875 75.28125 174.011719 94.160156 183.117188 113.121094 "/>
<path fill-rule="nonzero" fill="rgb(0%, 0%, 0%)" fill-opacity="1" d="M 366 95.839844 L 365.535156 93.789062 C 365.285156 93.167969 365.996094 91.535156 365.160156 91.523438 L 350.640625 106.042969 C 351.121094 106.265625 359.445312 109.359375 359.402344 109.761719 L 326.640625 132.921875 L 345.339844 110.339844 L 345.054688 109.957031 L 335.878906 106.160156 L 365.28125 87.921875 L 364.875 87.246094 C 363.027344 86.703125 360.511719 86.375 359.039062 85.523438 L 376.320312 80.242188 Z M 366 95.839844 "/>
<path fill-rule="nonzero" fill="rgb(0%, 0%, 0%)" fill-opacity="1" d="M 398.761719 308.164062 C 398.914062 308.164062 398.914062 308.40625 398.761719 308.40625 C 398.605469 308.40625 398.605469 308.164062 398.761719 308.164062 "/>
<path fill-rule="nonzero" fill="rgb(0%, 0%, 0%)" fill-opacity="1" d="M 113.878906 190.566406 C 114.035156 190.566406 114.035156 190.804688 113.878906 190.804688 C 113.722656 190.804688 113.722656 190.566406 113.878906 190.566406 "/>
<path fill-rule="nonzero" fill="rgb(0%, 0%, 0%)" fill-opacity="1" d="M 404.039062 167.046875 C 404.195312 167.046875 404.195312 167.285156 404.039062 167.285156 C 403.882812 167.285156 403.882812 167.046875 404.039062 167.046875 "/>
<path fill-rule="nonzero" fill="rgb(0%, 0%, 0%)" fill-opacity="1" d="M 169.84375 238.851562 C 173.277344 238.117188 175.371094 242.003906 172.25 243.65625 C 168.648438 245.65625 165.582031 240.085938 169.84375 238.851562 "/>
<path fill-rule="nonzero" fill="rgb(0%, 0%, 0%)" fill-opacity="1" d="M 182.082031 226.851562 C 186.042969 225.953125 186.765625 232.277344 182.269531 231.855469 C 179.609375 231.601562 179.625 227.40625 182.082031 226.851562 "/>
<path fill-rule="nonzero" fill="rgb(0%, 0%, 0%)" fill-opacity="1" d="M 237.285156 197.328125 C 240.726562 196.554688 240.957031 202.296875 237.488281 201.84375 C 235.140625 201.535156 234.980469 197.851562 237.285156 197.328125 "/>
<path fill-rule="nonzero" fill="rgb(0%, 0%, 0%)" fill-opacity="1" d="M 167.457031 250.367188 C 169.730469 250.113281 170.621094 253.714844 168.566406 254.851562 C 165.570312 256.511719 164.351562 250.707031 167.457031 250.367188 "/>
<path fill-rule="nonzero" fill="rgb(0%, 0%, 0%)" fill-opacity="1" d="M 276.167969 231.878906 C 277.085938 231.679688 278.480469 232.378906 278.632812 233.410156 C 279.027344 236.101562 277.546875 235.382812 275.679688 236.367188 C 273.585938 235.460938 273.867188 232.382812 276.167969 231.878906 "/>
<path fill-rule="nonzero" fill="rgb(0%, 0%, 0%)" fill-opacity="1" d="M 305.695312 244.609375 C 306.496094 244.484375 307.6875 245.078125 307.875 245.929688 C 308.289062 252.039062 300.121094 246.589844 305.695312 244.609375 "/>
<path fill-rule="nonzero" fill="rgb(0%, 0%, 0%)" fill-opacity="1" d="M 217.605469 213.410156 C 220.855469 212.675781 221.054688 217.871094 217.808594 217.441406 C 215.597656 217.152344 215.410156 213.90625 217.605469 213.410156 "/>
<path fill-rule="nonzero" fill="rgb(0%, 0%, 0%)" fill-opacity="1" d="M 248.085938 199.972656 C 250.375 199.164062 251.730469 202.71875 249.613281 203.65625 C 246.394531 204.703125 245.800781 200.484375 248.085938 199.972656 "/>
<path fill-rule="nonzero" fill="rgb(0%, 0%, 0%)" fill-opacity="1" d="M 223.628906 210.296875 C 225.183594 212.117188 222.894531 214.609375 220.90625 213.136719 C 219 211.441406 221.675781 208.597656 223.628906 210.296875 "/>
<path fill-rule="nonzero" fill="rgb(0%, 0%, 0%)" fill-opacity="1" d="M 210.167969 219.15625 C 212.191406 218.789062 212.625 223.136719 210.84375 223.445312 C 208 223.941406 208.273438 219.5 210.167969 219.15625 "/>
<path fill-rule="nonzero" fill="rgb(0%, 0%, 0%)" fill-opacity="1" d="M 203.6875 218.441406 C 206.386719 218.128906 206.445312 222.660156 203.269531 221.65625 C 201.75 221.160156 202.175781 218.769531 203.6875 218.441406 "/>
<path fill-rule="nonzero" fill="rgb(0%, 0%, 0%)" fill-opacity="1" d="M 303.3125 238.375 C 304.625 240.09375 302.800781 241.773438 301.007812 240.679688 C 299.921875 238.945312 301.703125 237.355469 303.3125 238.375 "/>
<path fill-rule="nonzero" fill="rgb(0%, 0%, 0%)" fill-opacity="1" d="M 177.886719 238.035156 C 177.144531 237.289062 177.667969 235.921875 178.921875 235.90625 C 181.1875 236.1875 179.65625 239.425781 177.886719 238.035156 "/>
<path fill-rule="nonzero" fill="rgb(0%, 0%, 0%)" fill-opacity="1" d="M 240.019531 241.902344 L 240.019531 240.507812 C 243.546875 239.175781 243.554688 243.230469 240.019531 241.902344 "/>
<path fill-rule="nonzero" fill="rgb(0%, 0%, 0%)" fill-opacity="1" d="M 222.910156 249.316406 C 222.085938 250.152344 220.167969 249.363281 220.914062 247.917969 C 221.722656 246.359375 224.066406 248.148438 222.910156 249.316406 "/>
<path fill-rule="nonzero" fill="rgb(0%, 0%, 0%)" fill-opacity="1" d="M 177.320312 233.085938 C 178.1875 234.933594 175.351562 235.871094 175.191406 233.875 C 175.097656 232.6875 176.503906 232.578125 177.320312 233.085938 "/>
<path fill-rule="nonzero" fill="rgb(0%, 0%, 0%)" fill-opacity="1" d="M 269.257812 236.863281 C 268.667969 236.933594 267.78125 237.007812 267.472656 236.410156 C 266.453125 234.414062 270.628906 233.933594 269.257812 236.863281 "/>
<path fill-rule="nonzero" fill="rgb(0%, 0%, 0%)" fill-opacity="1" d="M 201.992188 223.71875 C 203.316406 223.324219 203.316406 225.152344 202.65625 225.34375 C 201.050781 225.808594 201.007812 224.007812 201.992188 223.71875 "/>
<path fill-rule="nonzero" fill="rgb(0%, 0%, 0%)" fill-opacity="1" d="M 238.035156 243.800781 C 236.910156 244.90625 235.8125 242.214844 237.480469 242.394531 C 238.117188 242.464844 238.460938 243.386719 238.035156 243.800781 "/>
<path fill-rule="nonzero" fill="rgb(0%, 0%, 0%)" fill-opacity="1" d="M 134.074219 161.800781 C 136.15625 161.1875 135.820312 164.402344 134.152344 163.820312 C 133.085938 163.453125 133.238281 162.046875 134.074219 161.800781 "/>
<path fill-rule="nonzero" fill="rgb(0%, 0%, 0%)" fill-opacity="1" d="M 292.679688 214.085938 L 292.796875 214.203125 L 292.4375 214.5625 L 292.320312 214.445312 Z M 292.679688 214.085938 "/>
<g clip-path="url(#clip-0)">
<path fill="none" stroke-width="2.254" stroke-linecap="butt" stroke-linejoin="miter" stroke="rgb(0%, 0%, 0%)" stroke-opacity="1" stroke-miterlimit="10" d="M -0.00078125 0.00164375 C -0.00078125 -119.295231 -96.707812 -215.998356 -216.000781 -215.998356 C -335.29375 -215.998356 -432.000781 -119.295231 -432.000781 0.00164375 C -432.000781 119.294612 -335.29375 216.001644 -216.000781 216.001644 C -96.707812 216.001644 -0.00078125 119.294612 -0.00078125 0.00164375 Z M -0.00078125 0.00164375 " transform="matrix(1, 0, 0, -1, 445.2, 223.0368)"/>
</g>
</svg>
